<svg width="50" height="70" viewBox="0 0 50 70" fill="none" xmlns="http://www.w3.org/2000/svg">
<g clip-path="url(#clip0)">
<path d="M8.97602 70L2.42963 53.5653C-2.49087 41.2126 0.391564 26.7318 8.71814 18.3494C13.9014 13.1314 18.8465 7.57436 23.3847 1.53521L24.5383 0L27.2208 4.30295C30.5309 9.61228 33.0567 15.2579 34.5489 20.9785L8.97602 70Z" fill="#00AA95"/>
<path d="M48.9602 20.4993L48.0882 15.2078C43.7786 27.5408 32.7249 34.094 26.389 42.6039C15.3088 57.486 8.97604 70 8.97604 70H15.5364C44.695 70 53.1799 46.1072 48.9602 20.4993Z" fill="#00CC76"/>
<path d="M48.0881 15.2078L46.4989 15.9801C42.5832 17.8831 38.5916 19.5314 34.5488 20.9785V20.9787C32.1375 21.8419 29.7081 22.6335 27.2657 23.365C16.7636 26.5102 8.97592 38.0231 8.97592 51.7444V70C8.97603 70 36.2419 49.1086 48.0881 15.2078Z" fill="#A5E887"/>
</g>
<defs>
<clipPath id="clip0">
<rect width="50" height="70" fill="white"/>
</clipPath>
</defs>
</svg>
